ffmpeg started on 2025-05-02 at 17:43:12
Report written to "D:\Convert\FFMetrics\reports\psnr_report-6.txt"
Log level: 32
Command line:
ffmpeg -hide_banner -nostdin -i "G:\\\xc0\xed\xe8\xec\xe5\\\xce\xed\xe3\xee\xe8\xed\xe3\xe8\\!_35_\xcb\xe5\xf2\xee_2024\\JamClub\\\xcf\xf1\xe5\xe2\xe4\xee\xe3\xe0\xf0\xe5\xec\\JamClub_Giji_Harem_05_1080p_HEVC.mkv" -i "G:\\\xc0\xed\xe8\xec\xe5\\\xce\xed\xe3\xee\xe8\xed\xe3\xe8\\!_35_\xcb\xe5\xf2\xee_2024\\JamClub\\\xcf\xf1\xe5\xe2\xe4\xee\xe3\xe0\xf0\xe5\xec\\JamClub_Giji_Harem_05_1080p.mp4" -lavfi "[0:v]settb=AVTB,setpts=PTS-STARTPTS,format=pix_fmts=yuv420p10,fps=24000/1001,scale=1920:1080:flags=bicubic[main];[1:v]settb=AVTB,setpts=PTS-STARTPTS,format=pix_fmts=yuv420p,fps=24000/1001,scale=1920:1080:flags=bicubic[ref];[main][ref]psnr=eof_action=endall:stats_file='D\\:/Convert/FFMetrics/logs/psnr_logfile-6.txt'" -f null -
Input #0, matroska,webm, from 'G:\Аниме\Онгоинги\!_35_Лето_2024\JamClub\Псевдогарем\JamClub_Giji_Harem_05_1080p_HEVC.mkv':
  Metadata:
    COMPATIBLE_BRANDS: isomiso2avc1mp41
    MAJOR_BRAND     : isom
    MINOR_VERSION   : 512
    ENCODER         : Lavf61.7.100
  Duration: 00:24:17.81, start: -0.001000, bitrate: 1018 kb/s
  Stream #0:0: Video: hevc (Main 10), yuv420p10le(tv, bt709, progressive), 1920x1080 [SAR 1:1 DAR 16:9], 23.98 fps, 23.98 tbr, 1k tbn (default)
      Metadata:
        HANDLER_NAME    : VideoHandler
        VENDOR_ID       : [0][0][0][0]
        ENCODER         : Lavc61.19.100 libx265
        BPS             : 823154
        DURATION        : 00:24:13.159708333
        NUMBER_OF_FRAMES: 34841
        NUMBER_OF_BYTES : 149521818
        _STATISTICS_WRITING_APP: mkvpropedit v66.0.0 ('Josie') 64-bit
        _STATISTICS_WRITING_DATE_UTC: 2025-05-02 12:34:55
        _STATISTICS_TAGS: BPS DURATION NUMBER_OF_FRAMES NUMBER_OF_BYTES
  Stream #0:1(eng): Audio: aac (LC), 48000 Hz, stereo, fltp (default)
      Metadata:
        HANDLER_NAME    : SoundHandler
        VENDOR_ID       : [0][0][0][0]
        ENCODER         : Lavc61.19.100 aac
        BPS             : 194211
        DURATION        : 00:24:17.773000000
        NUMBER_OF_FRAMES: 68334
        NUMBER_OF_BYTES : 35389578
        _STATISTICS_WRITING_APP: mkvpropedit v66.0.0 ('Josie') 64-bit
        _STATISTICS_WRITING_DATE_UTC: 2025-05-02 12:34:55
        _STATISTICS_TAGS: BPS DURATION NUMBER_OF_FRAMES NUMBER_OF_BYTES
Input #1, mov,mp4,m4a,3gp,3g2,mj2, from 'G:\Аниме\Онгоинги\!_35_Лето_2024\JamClub\Псевдогарем\JamClub_Giji_Harem_05_1080p.mp4':
  Metadata:
    major_brand     : isom
    minor_version   : 512
    compatible_brands: isomiso2avc1mp41
    encoder         : Lavf60.16.100
  Duration: 00:24:17.79, start: 0.000000, bitrate: 5168 kb/s
  Stream #1:0[0x1](und): Video: h264 (High) (avc1 / 0x31637661), yuv420p(progressive), 1920x1080 [SAR 1:1 DAR 16:9], 4986 kb/s, 23.98 fps, 23.98 tbr, 90k tbn (default)
      Metadata:
        handler_name    : VideoHandler
        vendor_id       : [0][0][0][0]
  Stream #1:1[0x2](eng): Audio: aac (LC) (mp4a / 0x6134706D), 48000 Hz, stereo, fltp, 191 kb/s (default)
      Metadata:
        handler_name    : SoundHandler
        vendor_id       : [0][0][0][0]
Stream mapping:
  Stream #0:0 (hevc) -> settb:default
  Stream #1:0 (h264) -> settb:default
  psnr:default -> Stream #0:0 (wrapped_avframe)
  Stream #0:1 -> #0:1 (aac (native) -> pcm_s16le (native))
Output #0, null, to 'pipe:':
  Metadata:
    COMPATIBLE_BRANDS: isomiso2avc1mp41
    MAJOR_BRAND     : isom
    MINOR_VERSION   : 512
    encoder         : Lavf61.7.100
  Stream #0:0: Video: wrapped_avframe, yuv420p10le(tv, bt709, progressive), 1920x1080 [SAR 1:1 DAR 16:9], q=2-31, 200 kb/s, 23.98 fps, 23.98 tbn
      Metadata:
        encoder         : Lavc61.19.100 wrapped_avframe
  Stream #0:1(eng): Audio: pcm_s16le, 48000 Hz, stereo, s16, 1536 kb/s (default)
      Metadata:
        HANDLER_NAME    : SoundHandler
        VENDOR_ID       : [0][0][0][0]
        _STATISTICS_TAGS: BPS DURATION NUMBER_OF_FRAMES NUMBER_OF_BYTES
        BPS             : 194211
        DURATION        : 00:24:17.773000000
        NUMBER_OF_FRAMES: 68334
        NUMBER_OF_BYTES : 35389578
        _STATISTICS_WRITING_APP: mkvpropedit v66.0.0 ('Josie') 64-bit
        _STATISTICS_WRITING_DATE_UTC: 2025-05-02 12:34:55
        encoder         : Lavc61.19.100 pcm_s16le
frame=  112 fps=0.0 q=-0.0 size=N/A time=00:00:04.67 bitrate=N/A speed=9.29x    frame=  271 fps=265 q=-0.0 size=N/A time=00:00:11.30 bitrate=N/A speed=11.1x    frame=  476 fps=308 q=-0.0 size=N/A time=00:00:19.85 bitrate=N/A speed=12.8x    frame=  663 fps=323 q=-0.0 size=N/A time=00:00:27.65 bitrate=N/A speed=13.5x    frame=  902 fps=351 q=-0.0 size=N/A time=00:00:37.62 bitrate=N/A speed=14.6x    frame= 1147 fps=372 q=-0.0 size=N/A time=00:00:47.83 bitrate=N/A speed=15.5x    frame= 1385 fps=385 q=-0.0 size=N/A time=00:00:57.76 bitrate=N/A speed=  16x    frame= 1607 fps=391 q=-0.0 size=N/A time=00:01:07.02 bitrate=N/A speed=16.3x    frame= 1881 fps=406 q=-0.0 size=N/A time=00:01:18.45 bitrate=N/A speed=16.9x    frame= 2122 fps=412 q=-0.0 size=N/A time=00:01:28.50 bitrate=N/A speed=17.2x    frame= 2379 fps=420 q=-0.0 size=N/A time=00:01:39.22 bitrate=N/A speed=17.5x    frame= 2647 fps=428 q=-0.0 size=N/A time=00:01:50.40 bitrate=N/A speed=17.9x    frame= 2900 fps=433 q=-0.0 size=N/A time=00:02:00.95 bitrate=N/A speed=  18x    frame= 3164 fps=439 q=-0.0 size=N/A time=00:02:11.96 bitrate=N/A speed=18.3x    frame= 3409 fps=441 q=-0.0 size=N/A time=00:02:22.18 bitrate=N/A speed=18.4x    frame= 3655 fps=443 q=-0.0 size=N/A time=00:02:32.44 bitrate=N/A speed=18.5x    frame= 3906 fps=446 q=-0.0 size=N/A time=00:02:42.91 bitrate=N/A speed=18.6x    frame= 4171 fps=450 q=-0.0 size=N/A time=00:02:53.96 bitrate=N/A speed=18.8x    frame= 4448 fps=454 q=-0.0 size=N/A time=00:03:05.51 bitrate=N/A speed=18.9x    frame= 4719 fps=458 q=-0.0 size=N/A time=00:03:16.82 bitrate=N/A speed=19.1x    frame= 4968 fps=459 q=-0.0 size=N/A time=00:03:27.20 bitrate=N/A speed=19.1x    frame= 5186 fps=458 q=-0.0 size=N/A time=00:03:36.29 bitrate=N/A speed=19.1x    frame= 5449 fps=459 q=-0.0 size=N/A time=00:03:47.26 bitrate=N/A speed=19.2x    frame= 5698 fps=461 q=-0.0 size=N/A time=00:03:57.65 bitrate=N/A speed=19.2x    frame= 5916 fps=459 q=-0.0 size=N/A time=00:04:06.74 bitrate=N/A speed=19.2x    frame= 6138 fps=458 q=-0.0 size=N/A time=00:04:16.00 bitrate=N/A speed=19.1x    frame= 6318 fps=454 q=-0.0 size=N/A time=00:04:23.51 bitrate=N/A speed=18.9x    frame= 6499 fps=450 q=-0.0 size=N/A time=00:04:31.06 bitrate=N/A speed=18.8x    frame= 6695 fps=448 q=-0.0 size=N/A time=00:04:39.23 bitrate=N/A speed=18.7x    frame= 6878 fps=445 q=-0.0 size=N/A time=00:04:46.86 bitrate=N/A speed=18.6x    frame= 7068 fps=442 q=-0.0 size=N/A time=00:04:54.79 bitrate=N/A speed=18.4x    frame= 7323 fps=444 q=-0.0 size=N/A time=00:05:05.43 bitrate=N/A speed=18.5x    frame= 7574 fps=445 q=-0.0 size=N/A time=00:05:15.89 bitrate=N/A speed=18.6x    frame= 7852 fps=448 q=-0.0 size=N/A time=00:05:27.49 bitrate=N/A speed=18.7x    frame= 8119 fps=450 q=-0.0 size=N/A time=00:05:38.62 bitrate=N/A speed=18.8x    frame= 8359 fps=450 q=-0.0 size=N/A time=00:05:48.63 bitrate=N/A speed=18.8x    frame= 8613 fps=452 q=-0.0 size=N/A time=00:05:59.23 bitrate=N/A speed=18.8x    frame= 8884 fps=453 q=-0.0 size=N/A time=00:06:10.53 bitrate=N/A speed=18.9x    frame= 9169 fps=456 q=-0.0 size=N/A time=00:06:22.42 bitrate=N/A speed=  19x    frame= 9396 fps=456 q=-0.0 size=N/A time=00:06:31.89 bitrate=N/A speed=  19x    frame= 9630 fps=456 q=-0.0 size=N/A time=00:06:41.65 bitrate=N/A speed=  19x    frame= 9862 fps=456 q=-0.0 size=N/A time=00:06:51.32 bitrate=N/A speed=  19x    frame=10130 fps=457 q=-0.0 size=N/A time=00:07:02.50 bitrate=N/A speed=19.1x    frame=10373 fps=457 q=-0.0 size=N/A time=00:07:12.64 bitrate=N/A speed=19.1x    frame=10622 fps=458 q=-0.0 size=N/A time=00:07:23.06 bitrate=N/A speed=19.1x    frame=10861 fps=458 q=-0.0 size=N/A time=00:07:32.99 bitrate=N/A speed=19.1x    frame=11127 fps=459 q=-0.0 size=N/A time=00:07:44.08 bitrate=N/A speed=19.1x    frame=11396 fps=460 q=-0.0 size=N/A time=00:07:55.30 bitrate=N/A speed=19.2x    frame=11644 fps=461 q=-0.0 size=N/A time=00:08:05.65 bitrate=N/A speed=19.2x    frame=11905 fps=462 q=-0.0 size=N/A time=00:08:16.53 bitrate=N/A speed=19.3x    frame=12146 fps=462 q=-0.0 size=N/A time=00:08:26.58 bitrate=N/A speed=19.3x    frame=12363 fps=461 q=-0.0 size=N/A time=00:08:35.64 bitrate=N/A speed=19.2x    frame=12598 fps=461 q=-0.0 size=N/A time=00:08:45.44 bitrate=N/A speed=19.2x    frame=12797 fps=459 q=-0.0 size=N/A time=00:08:53.74 bitrate=N/A speed=19.2x    frame=13049 fps=460 q=-0.0 size=N/A time=00:09:04.25 bitrate=N/A speed=19.2x    frame=13299 fps=460 q=-0.0 size=N/A time=00:09:14.67 bitrate=N/A speed=19.2x    frame=13520 fps=460 q=-0.0 size=N/A time=00:09:23.89 bitrate=N/A speed=19.2x    frame=13776 fps=460 q=-0.0 size=N/A time=00:09:34.57 bitrate=N/A speed=19.2x    frame=14019 fps=461 q=-0.0 size=N/A time=00:09:44.70 bitrate=N/A speed=19.2x    frame=14293 fps=462 q=-0.0 size=N/A time=00:09:56.13 bitrate=N/A speed=19.3x    frame=14549 fps=462 q=-0.0 size=N/A time=00:10:06.81 bitrate=N/A speed=19.3x    frame=14827 fps=464 q=-0.0 size=N/A time=00:10:18.40 bitrate=N/A speed=19.3x    frame=15060 fps=463 q=-0.0 size=N/A time=00:10:28.12 bitrate=N/A speed=19.3x    frame=15326 fps=464 q=-0.0 size=N/A time=00:10:39.22 bitrate=N/A speed=19.4x    frame=15582 fps=465 q=-0.0 size=N/A time=00:10:49.89 bitrate=N/A speed=19.4x    frame=15829 fps=465 q=-0.0 size=N/A time=00:11:00.20 bitrate=N/A speed=19.4x    frame=16080 fps=465 q=-0.0 size=N/A time=00:11:10.67 bitrate=N/A speed=19.4x    frame=16328 fps=466 q=-0.0 size=N/A time=00:11:21.01 bitrate=N/A speed=19.4x    frame=16557 fps=465 q=-0.0 size=N/A time=00:11:30.56 bitrate=N/A speed=19.4x    frame=16792 fps=465 q=-0.0 size=N/A time=00:11:40.36 bitrate=N/A speed=19.4x    frame=17044 fps=465 q=-0.0 size=N/A time=00:11:50.87 bitrate=N/A speed=19.4x    frame=17306 fps=466 q=-0.0 size=N/A time=00:12:01.80 bitrate=N/A speed=19.4x    frame=17564 fps=466 q=-0.0 size=N/A time=00:12:12.56 bitrate=N/A speed=19.5x    frame=17809 fps=467 q=-0.0 size=N/A time=00:12:22.78 bitrate=N/A speed=19.5x    frame=18080 fps=467 q=-0.0 size=N/A time=00:12:34.08 bitrate=N/A speed=19.5x    frame=18314 fps=467 q=-0.0 size=N/A time=00:12:43.84 bitrate=N/A speed=19.5x    frame=18546 fps=467 q=-0.0 size=N/A time=00:12:53.52 bitrate=N/A speed=19.5x    frame=18823 fps=468 q=-0.0 size=N/A time=00:13:05.07 bitrate=N/A speed=19.5x    frame=19077 fps=468 q=-0.0 size=N/A time=00:13:15.66 bitrate=N/A speed=19.5x    frame=19365 fps=469 q=-0.0 size=N/A time=00:13:27.68 bitrate=N/A speed=19.6x    frame=19636 fps=470 q=-0.0 size=N/A time=00:13:38.98 bitrate=N/A speed=19.6x    frame=19908 fps=471 q=-0.0 size=N/A time=00:13:50.32 bitrate=N/A speed=19.6x    frame=20155 fps=471 q=-0.0 size=N/A time=00:14:00.63 bitrate=N/A speed=19.6x    frame=20419 fps=471 q=-0.0 size=N/A time=00:14:11.64 bitrate=N/A speed=19.7x    frame=20669 fps=472 q=-0.0 size=N/A time=00:14:22.06 bitrate=N/A speed=19.7x    frame=20934 fps=472 q=-0.0 size=N/A time=00:14:33.12 bitrate=N/A speed=19.7x    frame=21192 fps=472 q=-0.0 size=N/A time=00:14:43.88 bitrate=N/A speed=19.7x    frame=21433 fps=472 q=-0.0 size=N/A time=00:14:53.93 bitrate=N/A speed=19.7x    frame=21714 fps=473 q=-0.0 size=N/A time=00:15:05.65 bitrate=N/A speed=19.7x    frame=21974 fps=473 q=-0.0 size=N/A time=00:15:16.49 bitrate=N/A speed=19.7x    frame=22240 fps=474 q=-0.0 size=N/A time=00:15:27.59 bitrate=N/A speed=19.8x    frame=22498 fps=474 q=-0.0 size=N/A time=00:15:38.35 bitrate=N/A speed=19.8x    frame=22699 fps=473 q=-0.0 size=N/A time=00:15:46.73 bitrate=N/A speed=19.7x    frame=22902 fps=472 q=-0.0 size=N/A time=00:15:55.20 bitrate=N/A speed=19.7x    frame=23150 fps=472 q=-0.0 size=N/A time=00:16:05.54 bitrate=N/A speed=19.7x    frame=23358 fps=472 q=-0.0 size=N/A time=00:16:14.22 bitrate=N/A speed=19.7x    frame=23610 fps=472 q=-0.0 size=N/A time=00:16:24.73 bitrate=N/A speed=19.7x    frame=23892 fps=473 q=-0.0 size=N/A time=00:16:36.49 bitrate=N/A speed=19.7x    frame=24156 fps=473 q=-0.0 size=N/A time=00:16:47.50 bitrate=N/A speed=19.7x    frame=24398 fps=473 q=-0.0 size=N/A time=00:16:57.59 bitrate=N/A speed=19.7x    frame=24617 fps=473 q=-0.0 size=N/A time=00:17:06.73 bitrate=N/A speed=19.7x    frame=24876 fps=473 q=-0.0 size=N/A time=00:17:17.53 bitrate=N/A speed=19.7x    frame=25129 fps=473 q=-0.0 size=N/A time=00:17:28.08 bitrate=N/A speed=19.7x    frame=25412 fps=474 q=-0.0 size=N/A time=00:17:39.89 bitrate=N/A speed=19.8x    frame=25658 fps=474 q=-0.0 size=N/A time=00:17:50.15 bitrate=N/A speed=19.8x    frame=25908 fps=474 q=-0.0 size=N/A time=00:18:00.57 bitrate=N/A speed=19.8x    frame=26148 fps=474 q=-0.0 size=N/A time=00:18:10.58 bitrate=N/A speed=19.8x    frame=26423 fps=474 q=-0.0 size=N/A time=00:18:22.05 bitrate=N/A speed=19.8x    frame=26680 fps=475 q=-0.0 size=N/A time=00:18:32.77 bitrate=N/A speed=19.8x    frame=26955 fps=475 q=-0.0 size=N/A time=00:18:44.24 bitrate=N/A speed=19.8x    frame=27203 fps=475 q=-0.0 size=N/A time=00:18:54.59 bitrate=N/A speed=19.8x    frame=27473 fps=476 q=-0.0 size=N/A time=00:19:05.85 bitrate=N/A speed=19.8x    frame=27727 fps=476 q=-0.0 size=N/A time=00:19:16.44 bitrate=N/A speed=19.8x    frame=27990 fps=476 q=-0.0 size=N/A time=00:19:27.41 bitrate=N/A speed=19.9x    frame=28235 fps=476 q=-0.0 size=N/A time=00:19:37.63 bitrate=N/A speed=19.9x    frame=28471 fps=476 q=-0.0 size=N/A time=00:19:47.47 bitrate=N/A speed=19.9x    frame=28698 fps=476 q=-0.0 size=N/A time=00:19:56.94 bitrate=N/A speed=19.8x    frame=28916 fps=475 q=-0.0 size=N/A time=00:20:06.03 bitrate=N/A speed=19.8x    frame=29182 fps=476 q=-0.0 size=N/A time=00:20:17.13 bitrate=N/A speed=19.8x    frame=29452 fps=476 q=-0.0 size=N/A time=00:20:28.39 bitrate=N/A speed=19.8x    frame=29693 fps=476 q=-0.0 size=N/A time=00:20:38.44 bitrate=N/A speed=19.8x    frame=29971 fps=476 q=-0.0 size=N/A time=00:20:50.04 bitrate=N/A speed=19.9x    frame=30245 fps=477 q=-0.0 size=N/A time=00:21:01.46 bitrate=N/A speed=19.9x    frame=30480 fps=477 q=-0.0 size=N/A time=00:21:11.27 bitrate=N/A speed=19.9x    frame=30726 fps=477 q=-0.0 size=N/A time=00:21:21.53 bitrate=N/A speed=19.9x    frame=30991 fps=477 q=-0.0 size=N/A time=00:21:32.58 bitrate=N/A speed=19.9x    frame=31268 fps=477 q=-0.0 size=N/A time=00:21:44.13 bitrate=N/A speed=19.9x    frame=31541 fps=478 q=-0.0 size=N/A time=00:21:55.52 bitrate=N/A speed=19.9x    frame=31822 fps=478 q=-0.0 size=N/A time=00:22:07.24 bitrate=N/A speed=  20x    frame=32063 fps=478 q=-0.0 size=N/A time=00:22:17.29 bitrate=N/A speed=19.9x    frame=32311 fps=478 q=-0.0 size=N/A time=00:22:27.63 bitrate=N/A speed=19.9x    frame=32521 fps=478 q=-0.0 size=N/A time=00:22:36.39 bitrate=N/A speed=19.9x    frame=32687 fps=477 q=-0.0 size=N/A time=00:22:43.32 bitrate=N/A speed=19.9x    frame=32904 fps=476 q=-0.0 size=N/A time=00:22:52.37 bitrate=N/A speed=19.9x    frame=33093 fps=475 q=-0.0 size=N/A time=00:23:00.25 bitrate=N/A speed=19.8x    frame=33289 fps=475 q=-0.0 size=N/A time=00:23:08.42 bitrate=N/A speed=19.8x    frame=33510 fps=474 q=-0.0 size=N/A time=00:23:17.64 bitrate=N/A speed=19.8x    frame=33727 fps=474 q=-0.0 size=N/A time=00:23:26.69 bitrate=N/A speed=19.8x    frame=33931 fps=473 q=-0.0 size=N/A time=00:23:35.20 bitrate=N/A speed=19.7x    frame=34151 fps=473 q=-0.0 size=N/A time=00:23:44.38 bitrate=N/A speed=19.7x    frame=34405 fps=473 q=-0.0 size=N/A time=00:23:54.97 bitrate=N/A speed=19.7x    frame=34670 fps=473 q=-0.0 size=N/A time=00:24:06.02 bitrate=N/A speed=19.7x    [Parsed_psnr_10 @ 000001bcc85f6000] PSNR y:47.756320 u:50.540220 v:50.491731 average:48.496819 min:37.687346 max:inf
[out#0/null @ 000001bcb1b23fc0] video:14971KiB audio:273336KiB subtitle:0KiB other streams:0KiB global headers:0KiB muxing overhead: unknown
frame=34841 fps=474 q=-0.0 Lsize=N/A time=00:24:13.16 bitrate=N/A speed=19.8x    
